<?xml version="1.0" encoding="UTF-8" standalone="no"?>
<svg
   xmlns:dc="http://purl.org/dc/elements/1.1/"
   xmlns:cc="http://creativecommons.org/ns#"
   xmlns:rdf="http://www.w3.org/1999/02/22-rdf-syntax-ns#"
   xmlns:svg="http://www.w3.org/2000/svg"
   xmlns="http://www.w3.org/2000/svg"
   xmlns:sodipodi="http://sodipodi.sourceforge.net/DTD/sodipodi-0.dtd"
   xmlns:inkscape="http://www.inkscape.org/namespaces/inkscape"
   width="21.243313mm"
   height="4.3478584mm"
   viewBox="0 0 21.243313 4.3478584"
   version="1.1"
   id="svg8"
   inkscape:version="1.0.2 (e86c870879, 2021-01-15, custom)"
   sodipodi:docname="showMeter2.svg">
  <defs
     id="defs2" />
  <sodipodi:namedview
     id="base"
     pagecolor="#ffffff"
     bordercolor="#666666"
     borderopacity="1.0"
     inkscape:pageopacity="0.0"
     inkscape:pageshadow="2"
     inkscape:zoom="0.4218543"
     inkscape:cx="128.55754"
     inkscape:cy="-30.989925"
     inkscape:document-units="mm"
     inkscape:current-layer="layer1"
     inkscape:document-rotation="0"
     showgrid="false"
     fit-margin-top="0"
     fit-margin-left="0"
     fit-margin-right="0"
     fit-margin-bottom="0"
     inkscape:window-width="1920"
     inkscape:window-height="1122"
     inkscape:window-x="-8"
     inkscape:window-y="-8"
     inkscape:window-maximized="1" />
  <metadata
     id="metadata5">
    <rdf:RDF>
      <cc:Work
         rdf:about="">
        <dc:format>image/svg+xml</dc:format>
        <dc:type
           rdf:resource="http://purl.org/dc/dcmitype/StillImage" />
        <dc:title></dc:title>
      </cc:Work>
    </rdf:RDF>
  </metadata>
  <g
     inkscape:label="Layer 1"
     inkscape:groupmode="layer"
     id="layer1"
     transform="translate(-71.81915,-156.36608)">
    <g
       id="showMeter_btn"
       transform="translate(15.561437,54.480922)">
      <rect
         style="opacity:0.75;fill:#002255;stroke:none;stroke-width:1.1793;stroke-linecap:round;stroke-miterlimit:4;stroke-dasharray:none;stop-color:#000000"
         id="rect840"
         width="21.243313"
         height="4.3478584"
         x="56.257713"
         y="101.88516" />
      <g
         aria-label="Show Meter"
         id="text844"
         style="font-style:normal;font-weight:normal;font-size:10.5833px;line-height:1.25;font-family:sans-serif;fill:#ffffff;fill-opacity:1;stroke:none;stroke-width:4.18442;stroke-miterlimit:4;stroke-dasharray:none"
         transform="matrix(0.32357002,0,0,0.32357002,43.739915,73.104291)">
        <path
           id="path862"
           style="fill:#ffffff;stroke-width:7.53953;stroke-miterlimit:4;stroke-dasharray:none"
           d="m 102.54008,95.180984 h -0.0517 q -0.21704,-0.05168 -0.42375,-0.07235 -0.20154,-0.02584 -0.48059,-0.02584 -0.44958,0 -0.86816,0.201538 -0.41858,0.19637 -0.80615,0.511595 v 4.097928 h -0.971514 v -5.772239 h 0.971514 v 0.852658 q 0.57877,-0.465086 1.01802,-0.656288 0.44442,-0.19637 0.90434,-0.19637 0.25321,0 0.3669,0.0155 0.11369,0.01033 0.34106,0.04651 z m -5.074607,1.927525 h -4.252957 q 0,0.532266 0.160196,0.930173 0.160197,0.392739 0.439248,0.645953 0.268717,0.248046 0.635619,0.372069 0.372069,0.124023 0.816485,0.124023 0.589109,0 1.183386,-0.232543 0.599445,-0.237711 0.852658,-0.465086 h 0.05168 v 1.059363 q -0.490925,0.206705 -1.00252,0.346231 -0.511595,0.139528 -1.074866,0.139528 -1.4366,0 -2.24275,-0.775146 -0.80615,-0.780312 -0.80615,-2.211744 0,-1.41593 0.769976,-2.247918 0.775144,-0.831988 2.036045,-0.831988 1.167884,0 1.798334,0.682127 0.635619,0.682127 0.635619,1.93786 z m -0.945676,-0.744138 q -0.0052,-0.764809 -0.387572,-1.183387 -0.377237,-0.418578 -1.152381,-0.418578 -0.780312,0 -1.245398,0.459919 -0.459919,0.459919 -0.52193,1.142046 z m -5.059109,3.477813 q -0.273884,0.07235 -0.599444,0.118855 -0.320393,0.04651 -0.573607,0.04651 -0.883664,0 -1.343583,-0.475447 -0.459919,-0.475422 -0.459919,-1.52445 V 94.9381 h -0.656288 v -0.81648 h 0.656288 v -1.658808 h 0.971514 v 1.658808 h 2.005039 v 0.816485 h -2.005039 v 2.630322 q 0,0.454751 0.02067,0.713132 0.02067,0.253214 0.144693,0.475422 0.113688,0.206705 0.310058,0.30489 0.201537,0.09302 0.60978,0.09302 0.237711,0 0.496092,-0.06718 0.258381,-0.07235 0.372069,-0.118855 h 0.05168 z m -4.469996,-2.733675 h -4.252957 q 0,0.532266 0.160196,0.930173 0.160197,0.392739 0.439248,0.645953 0.268717,0.248046 0.635618,0.372069 0.37207,0.124023 0.816486,0.124023 0.589109,0 1.183386,-0.232543 0.599445,-0.237711 0.852658,-0.465086 h 0.05168 v 1.059363 q -0.490925,0.206705 -1.00252,0.346231 -0.511595,0.139528 -1.074866,0.139528 -1.4366,0 -2.24275,-0.775146 -0.80615,-0.780312 -0.80615,-2.211744 0,-1.41593 0.769976,-2.247918 0.775144,-0.831988 2.036045,-0.831988 1.167884,0 1.798334,0.682127 0.635619,0.682127 0.635619,1.93786 z m -0.945676,-0.744138 q -0.0052,-0.764809 -0.387572,-1.183387 -0.377237,-0.418578 -1.152381,-0.418578 -0.780312,0 -1.245398,0.459919 -0.459919,0.459919 -0.52193,1.142046 z m -5.875591,3.529489 h -1.02319 v -6.630065 l -2.139398,4.511338 h -0.60978 l -2.123894,-4.511338 v 6.630065 h -0.956011 v -7.694596 h 1.395259 l 2.051548,4.283962 1.984369,-4.283962 h 1.421097 z M 68.118519,94.121621 66.61474,99.89386 H 65.715573 L 64.232464,95.444533 62.75969,99.89386 h -0.893999 l -1.519282,-5.772239 h 1.012855 l 1.059363,4.469997 1.441768,-4.469997 h 0.800982 l 1.477941,4.469997 1.00252,-4.469997 z m -8.764295,2.888703 q 0,1.410762 -0.723468,2.227247 -0.723468,0.816489 -1.93786,0.816489 -1.224728,0 -1.948195,-0.816489 -0.718301,-0.816485 -0.718301,-2.227247 0,-1.410762 0.718301,-2.227247 0.723467,-0.821653 1.948195,-0.821653 1.214392,0 1.93786,0.821653 0.723468,0.816485 0.723468,2.227247 z m -1.00252,0 q 0,-1.121375 -0.439248,-1.663976 -0.439249,-0.547768 -1.21956,-0.547768 -0.790647,0 -1.229895,0.547768 -0.434081,0.542601 -0.434081,1.663976 0,1.085202 0.439248,1.648473 0.439249,0.558104 1.224728,0.558104 0.775144,0 1.214392,-0.552936 0.444416,-0.558104 0.444416,-1.653641 z m -5.787741,2.883536 h -0.971514 v -3.286611 q 0,-0.397907 -0.04651,-0.744138 -0.04651,-0.351399 -0.170532,-0.547768 -0.12919,-0.217041 -0.372069,-0.320393 -0.242878,-0.10852 -0.63045,-0.10852 -0.397907,0 -0.831988,0.196369 -0.434081,0.19637 -0.831988,0.50126 v 4.309801 h -0.971514 v -8.040827 h 0.971514 v 2.909373 q 0.454751,-0.377236 0.940508,-0.589109 0.485757,-0.211873 0.997352,-0.211873 0.935341,0 1.426265,0.563272 0.490925,0.563271 0.490925,1.622634 z m -6.392355,-2.196242 q 0,0.449584 -0.211872,0.888832 -0.206705,0.439249 -0.583942,0.744139 -0.41341,0.330728 -0.966346,0.516762 -0.547769,0.186039 -1.322913,0.186039 -0.831988,0 -1.498611,-0.155033 -0.661457,-0.155029 -1.348751,-0.459919 v -1.281571 h 0.07235 q 0.583942,0.485757 1.34875,0.749306 0.764809,0.263549 1.436601,0.263549 0.950843,0 1.477941,-0.356567 0.532265,-0.356566 0.532265,-0.950843 0,-0.511595 -0.253213,-0.754473 -0.248046,-0.242879 -0.759641,-0.377237 -0.387572,-0.103353 -0.842324,-0.170532 -0.449583,-0.06718 -0.956011,-0.170532 -1.02319,-0.21704 -1.519282,-0.73897 -0.490924,-0.527098 -0.490924,-1.369421 0,-0.966347 0.816485,-1.581294 0.816485,-0.620115 2.072218,-0.620115 0.811317,0 1.488276,0.155028 0.67696,0.155029 1.19889,0.382405 v 1.209225 h -0.07235 q -0.439248,-0.37207 -1.157548,-0.614948 -0.713133,-0.248046 -1.462439,-0.248046 -0.821652,0 -1.322912,0.341063 -0.496092,0.341064 -0.496092,0.878497 0,0.480589 0.248046,0.754473 0.248046,0.273884 0.873329,0.418578 0.330728,0.07235 0.940508,0.175699 0.60978,0.103353 1.033525,0.211873 0.857826,0.227376 1.291907,0.687294 0.43408,0.459919 0.43408,1.286739 z" />
      </g>
    </g>
  </g>
</svg>
