<?xml version="1.0" encoding="UTF-8" standalone="no"?>
<svg
   xmlns:dc="http://purl.org/dc/elements/1.1/"
   xmlns:cc="http://creativecommons.org/ns#"
   xmlns:rdf="http://www.w3.org/1999/02/22-rdf-syntax-ns#"
   xmlns:svg="http://www.w3.org/2000/svg"
   xmlns="http://www.w3.org/2000/svg"
   xmlns:sodipodi="http://sodipodi.sourceforge.net/DTD/sodipodi-0.dtd"
   xmlns:inkscape="http://www.inkscape.org/namespaces/inkscape"
   version="1.1"
   id="svg2"
   xml:space="preserve"
   width="273.19913"
   height="85.094032"
   viewBox="0 0 273.19912 85.094027"
   sodipodi:docname="geaLogo.svg"
   inkscape:version="1.0.2 (e86c870879, 2021-01-15, custom)"><metadata
     id="metadata8"><rdf:RDF><cc:Work
         rdf:about=""><dc:format>image/svg+xml</dc:format><dc:type
           rdf:resource="http://purl.org/dc/dcmitype/StillImage" /><dc:title></dc:title></cc:Work></rdf:RDF></metadata><defs
     id="defs6"><clipPath
       clipPathUnits="userSpaceOnUse"
       id="clipPath24"><path
         d="M 0,107.25 H 275.875 V 0 H 0 Z"
         id="path22" /></clipPath></defs><sodipodi:namedview
     pagecolor="#ffffff"
     bordercolor="#666666"
     borderopacity="1"
     objecttolerance="10"
     gridtolerance="10"
     guidetolerance="10"
     inkscape:pageopacity="0"
     inkscape:pageshadow="2"
     inkscape:window-width="1920"
     inkscape:window-height="1122"
     id="namedview4"
     showgrid="false"
     inkscape:zoom="2.152404"
     inkscape:cx="153.21174"
     inkscape:cy="40.778393"
     inkscape:window-x="-8"
     inkscape:window-y="-8"
     inkscape:window-maximized="1"
     inkscape:current-layer="g20"
     fit-margin-top="0"
     fit-margin-left="0"
     fit-margin-right="0"
     fit-margin-bottom="0"
     inkscape:document-rotation="0" /><g
     id="g10"
     inkscape:groupmode="layer"
     inkscape:label="15_GEA_border_horiz_541"
     transform="matrix(1.3333333,0,0,-1.3333333,-30.704932,112.27839)"><g
       id="g18"
       style="fill:#000000"
       transform="matrix(1.0433817,0,0,1.0433817,-0.99902467,-3.6531227)"><g
         id="g20"
         clip-path="url(#clipPath24)"
         style="fill:#000000"><g
           id="g26"
           transform="translate(60.4707,61.5928)"
           style="fill:#ffffff"><path
             d="M 0,0 C 0,3.476 2.356,6.851 3.637,6.21 5.103,5.478 2.547,2.203 0,0 m -16.011,-1.271 c 0,2.798 2.759,8.11 4.45,7.547 1.987,-0.664 -1.655,-6.02 -4.45,-7.547 m -2.796,-19.999 c -1.266,-0.054 -2.114,0.756 -2.114,2.11 0,3.644 5.049,7.119 8.859,8.984 -0.674,-5.084 -2.391,-10.894 -6.745,-11.094 M 4.489,-9.41 c -2.879,0 -5.08,-2.115 -5.08,-4.658 0,-2.119 1.268,-3.813 2.963,-3.813 0.594,0 1.188,0.34 1.188,1.1 0,1.103 -1.458,1.369 -1.351,3.019 0.075,1.086 1.1,1.813 2.114,1.813 2.033,0 2.983,-1.971 2.983,-4.004 -0.084,-3.135 -2.394,-5.317 -5.103,-5.317 -3.559,0 -5.845,3.389 -5.845,7.034 0,5.423 3.56,7.541 5.422,8.05 0.02,0 4.873,-0.869 4.721,1.274 -0.07,0.941 -1.466,1.299 -2.48,1.34 -1.126,0.047 -2.26,-0.36 -2.26,-0.36 -0.587,0.299 -0.994,0.883 -1.25,1.559 3.471,2.629 5.927,5.17 5.927,8.048 0,1.527 -1.015,2.881 -2.963,2.881 -3.475,0 -6.098,-4.407 -6.098,-8.386 0,-0.678 0,-1.356 0.169,-1.949 -2.205,-1.61 -3.842,-2.612 -6.805,-4.389 0,0.371 0.075,1.328 0.326,2.566 1.014,1.104 2.413,2.758 2.413,4.026 0,0.594 -0.337,1.103 -1.021,1.103 -1.689,0 -2.964,-2.543 -3.3,-4.322 -0.763,-0.935 -2.291,-2.119 -3.558,-2.119 -1.019,0 -1.356,0.93 -1.444,1.269 3.222,1.104 7.205,5.51 7.205,9.492 0,0.843 -0.341,2.709 -2.881,2.709 -3.814,0 -7.033,-5.675 -7.033,-10.081 -1.356,0 -1.86,1.441 -1.86,2.543 0,1.103 0.421,2.202 0.421,2.54 0,0.338 -0.17,0.761 -0.681,0.761 -1.269,0 -2.031,-1.69 -2.031,-3.639 0.086,-2.711 1.864,-4.41 4.237,-4.58 0.338,-1.608 1.779,-3.135 3.557,-3.135 1.103,0 2.455,0.34 3.39,1.187 -0.085,-0.591 -0.169,-1.103 -0.256,-1.611 -3.727,-1.951 -6.438,-3.307 -8.897,-5.506 -1.945,-1.783 -3.048,-4.152 -3.048,-6.015 0,-2.545 1.612,-4.915 4.913,-4.915 3.898,0 6.866,3.137 8.302,7.456 0.679,2.031 0.952,4.99 1.121,7.705 3.899,2.203 5.742,3.476 7.776,4.921 0.252,-0.425 0.51,-0.763 0.848,-1.017 -1.778,-0.936 -6.017,-3.563 -6.017,-9.746 0,-4.404 2.966,-9.319 8.81,-9.319 4.833,0 8.136,3.981 8.136,7.793 0,3.473 -1.949,6.692 -5.68,6.692 m 14.567,-7.276 c -0.012,-0.025 -0.063,-0.064 -0.158,-0.031 -0.07,0.026 -0.09,0.063 -0.087,0.108 0.003,0.05 1.022,3.066 1.015,6.521 -0.009,3.733 -1.525,6.022 -3.472,6.022 -1.188,0 -2.033,-0.848 -2.033,-2.12 0,-2.289 2.792,-2.46 2.792,-7.46 0,-2.032 -0.421,-3.979 -1.098,-6.096 C 12.88,-30.33 2.884,-35.246 -6.857,-35.246 c -4.494,0 -7.683,0.926 -8.636,1.351 -0.038,0.02 -0.07,0.094 -0.04,0.17 0.023,0.055 0.088,0.098 0.124,0.084 0.387,-0.15 3.127,-1.011 6.514,-1.011 3.727,0 5.93,1.525 5.93,3.386 0,1.188 -0.928,2.118 -2.116,2.118 -2.291,0 -2.46,-2.877 -7.373,-2.877 -2.117,0 -3.983,0.423 -6.18,1.099 -10.51,3.223 -15.514,13.133 -15.504,22.959 0.003,4.789 1.343,8.6 1.367,8.637 0.013,0.029 0.075,0.053 0.149,0.029 0.075,-0.029 0.095,-0.094 0.089,-0.113 -0.124,-0.395 -1.013,-3.127 -1.013,-6.518 0,-3.732 1.524,-5.933 3.475,-5.933 1.097,0 2.031,0.845 2.031,2.033 0,2.289 -2.799,2.543 -2.799,7.459 0,2.119 0.427,3.986 1.106,6.185 3.217,10.503 13.131,15.427 22.876,15.501 4.528,0.036 8.486,-1.318 8.637,-1.437 0.028,-0.025 0.057,-0.084 0.028,-0.152 -0.033,-0.082 -0.085,-0.09 -0.114,-0.088 -0.05,0.006 -2.622,1.084 -6.52,1.084 -3.644,0.002 -5.932,-1.526 -5.932,-3.475 0,-1.099 0.847,-2.031 2.12,-2.031 2.287,0 2.458,2.795 7.369,2.795 2.119,0 3.982,-0.422 6.181,-1.1 10.591,-3.221 15.415,-13.216 15.506,-22.876 0.047,-4.947 -1.348,-8.691 -1.362,-8.719 M -6.857,21.177 c -16.099,0 -29.146,-13.045 -29.146,-29.144 0,-16.095 13.047,-29.14 29.146,-29.14 16.093,0 29.139,13.045 29.139,29.14 0,16.013 -13.046,29.144 -29.139,29.144 m 0,-59.728 c -16.863,0 -30.585,13.641 -30.585,30.584 0,16.861 13.722,30.583 30.585,30.583 16.855,0 30.578,-13.722 30.578,-30.583 0,-16.943 -13.723,-30.584 -30.578,-30.584"
             style="fill:#ffffff;fill-opacity:1;fill-rule:nonzero;stroke:none"
             id="path28" /></g><g
           id="g30"
           transform="matrix(0.82915093,0,0,0.82915093,92.633135,54.595363)"
           style="fill:#ffffff"><path
             d="m 0,0 v 0.031 c 0,3.266 2.561,5.826 6.033,5.826 1.969,0 3.362,-0.607 4.547,-1.632 L 8.756,2.033 C 7.955,2.705 7.154,3.09 6.051,3.09 4.434,3.09 3.186,1.729 3.186,0.016 v -0.032 c 0,-1.808 1.263,-3.105 3.041,-3.105 0.752,0 1.328,0.16 1.793,0.463 v 1.361 H 5.811 v 2.274 h 5.152 V -4.066 C 9.779,-5.043 8.131,-5.795 6.098,-5.795 2.609,-5.795 0,-3.395 0,0"
             style="fill:#ffffff;fill-opacity:1;fill-rule:nonzero;stroke:none"
             id="path32" /></g><g
           id="g34"
           transform="matrix(0.82915093,0,0,0.82915093,104.47931,59.267463)"
           style="fill:#ffffff"><path
             d="M 0,0 H 9.012 V -2.643 H 3.074 V -4.338 H 8.451 V -6.787 H 3.074 v -1.777 h 6.018 v -2.641 H 0 Z"
             style="fill:#ffffff;fill-opacity:1;fill-rule:nonzero;stroke:none"
             id="path36" /></g><g
           id="g38"
           transform="matrix(0.82915093,0,0,0.82915093,125.12384,53.639933)"
           style="fill:#ffffff"><path
             d="M 0,0 -1.248,3.186 -2.512,0 Z m -2.721,6.867 h 2.994 l 4.77,-11.285 h -3.33 l -0.817,2 h -4.32 l -0.801,-2 H -7.49 Z"
             style="fill:#ffffff;fill-opacity:1;fill-rule:nonzero;stroke:none"
             id="path40" /></g><g
           id="g42"
           transform="matrix(0.82915093,0,0,0.82915093,135.32472,54.648844)"
           style="fill:#ffffff"><path
             d="m 0,0 c 1.105,0 1.777,0.576 1.777,1.455 v 0.033 c 0,0.961 -0.672,1.473 -1.793,1.473 H -1.473 V 0 Z m -4.578,5.57 h 4.803 c 2.834,0 4.658,-1.457 4.658,-3.937 V 1.6 c 0,-2.641 -2.033,-4.034 -4.819,-4.034 h -1.537 v -3.201 h -3.105 z"
             style="fill:#ffffff;fill-opacity:1;fill-rule:nonzero;stroke:none"
             id="path44" /></g><g
           id="g46"
           transform="matrix(0.82915093,0,0,0.82915093,145.58058,54.648844)"
           style="fill:#ffffff"><path
             d="m 0,0 c 1.104,0 1.775,0.576 1.775,1.455 v 0.033 c 0,0.961 -0.671,1.473 -1.791,1.473 H -1.473 V 0 Z m -4.578,5.57 h 4.801 c 2.834,0 4.658,-1.457 4.658,-3.937 V 1.6 c 0,-2.641 -2.033,-4.034 -4.817,-4.034 h -1.537 v -3.201 h -3.105 z"
             style="fill:#ffffff;fill-opacity:1;fill-rule:nonzero;stroke:none"
             id="path48" /></g><g
           id="g50"
           transform="matrix(0.82915093,0,0,0.82915093,152.03891,59.267463)"
           style="fill:#ffffff"><path
             d="m 0,0 h 3.105 v -8.484 h 5.426 v -2.721 H 0 Z"
             style="fill:#ffffff;fill-opacity:1;fill-rule:nonzero;stroke:none"
             id="path52" /></g><path
           d="m 161.59172,59.267048 h 2.58779 v -9.290636 h -2.58779 z"
           style="fill:#ffffff;fill-opacity:1;fill-rule:nonzero;stroke:none;stroke-width:0.82915"
           id="path54" /><g
           id="g56"
           transform="matrix(0.82915093,0,0,0.82915093,172.67051,53.639933)"
           style="fill:#ffffff"><path
             d="M 0,0 -1.248,3.186 -2.514,0 Z M -2.721,6.867 H 0.271 L 5.041,-4.418 H 1.713 l -0.817,2 h -4.322 l -0.801,-2 h -3.265 z"
             style="fill:#ffffff;fill-opacity:1;fill-rule:nonzero;stroke:none"
             id="path58" /></g><g
           id="g60"
           transform="matrix(0.82915093,0,0,0.82915093,179.07537,59.267463)"
           style="fill:#ffffff"><path
             d="m 0,0 h 2.898 l 4.61,-5.924 V 0 H 10.58 V -11.205 H 7.859 l -4.785,6.146 v -6.146 H 0 Z"
             style="fill:#ffffff;fill-opacity:1;fill-rule:nonzero;stroke:none"
             id="path62" /></g><g
           id="g64"
           transform="matrix(0.82915093,0,0,0.82915093,190.49883,54.595363)"
           style="fill:#ffffff"><path
             d="m 0,0 v 0.031 c 0,3.266 2.512,5.826 5.906,5.826 2.289,0 3.762,-0.959 4.754,-2.336 L 8.322,1.713 C 7.682,2.514 6.945,3.025 5.873,3.025 4.305,3.025 3.201,1.697 3.201,0.064 V 0.031 c 0,-1.679 1.104,-2.992 2.672,-2.992 1.17,0 1.857,0.543 2.529,1.359 L 10.74,-3.266 C 9.684,-4.723 8.258,-5.795 5.777,-5.795 2.576,-5.795 0,-3.346 0,0"
             style="fill:#ffffff;fill-opacity:1;fill-rule:nonzero;stroke:none"
             id="path66" /></g><g
           id="g68"
           transform="matrix(0.82915093,0,0,0.82915093,201.82677,59.267463)"
           style="fill:#ffffff"><path
             d="M 0,0 H 9.012 V -2.643 H 3.074 V -4.338 H 8.451 V -6.787 H 3.074 v -1.777 h 6.018 v -2.641 H 0 Z"
             style="fill:#ffffff;fill-opacity:1;fill-rule:nonzero;stroke:none"
             id="path70" /></g><g
           id="g72"
           transform="matrix(0.82915093,0,0,0.82915093,211.30048,51.356534)"
           style="fill:#ffffff"><path
             d="M 0,0 1.729,2.064 C 2.832,1.186 4.064,0.721 5.361,0.721 c 0.832,0 1.282,0.287 1.282,0.767 v 0.033 c 0,0.463 -0.37,0.721 -1.889,1.073 C 2.367,3.137 0.527,3.811 0.527,6.115 v 0.031 c 0,2.083 1.649,3.586 4.338,3.586 1.905,0 3.393,-0.511 4.61,-1.488 L 7.922,6.051 C 6.898,6.771 5.777,7.154 4.785,7.154 4.033,7.154 3.664,6.836 3.664,6.436 V 6.402 C 3.664,5.891 4.049,5.666 5.602,5.314 8.178,4.754 9.779,3.922 9.779,1.824 V 1.793 C 9.779,-0.496 7.971,-1.855 5.25,-1.855 3.264,-1.855 1.375,-1.232 0,0"
             style="fill:#ffffff;fill-opacity:1;fill-rule:nonzero;stroke:none"
             id="path74" /></g></g></g></g></svg>
