<?xml version="1.0" encoding="UTF-8" standalone="no"?>
<svg
   xmlns:dc="http://purl.org/dc/elements/1.1/"
   xmlns:cc="http://creativecommons.org/ns#"
   xmlns:rdf="http://www.w3.org/1999/02/22-rdf-syntax-ns#"
   xmlns:svg="http://www.w3.org/2000/svg"
   xmlns="http://www.w3.org/2000/svg"
   xmlns:sodipodi="http://sodipodi.sourceforge.net/DTD/sodipodi-0.dtd"
   xmlns:inkscape="http://www.inkscape.org/namespaces/inkscape"
   width="10.392444mm"
   height="12.258518mm"
   viewBox="0 0 10.392444 12.258518"
   version="1.1"
   id="svg8"
   inkscape:version="1.0.2 (e86c870879, 2021-01-15, custom)"
   sodipodi:docname="bellIcon.svg">
  <defs
     id="defs2" />
  <sodipodi:namedview
     id="base"
     pagecolor="#ffffff"
     bordercolor="#666666"
     borderopacity="1.0"
     inkscape:pageopacity="0.0"
     inkscape:pageshadow="2"
     inkscape:zoom="4.1031175"
     inkscape:cx="5.6324609"
     inkscape:cy="20.259361"
     inkscape:document-units="mm"
     inkscape:current-layer="layer1"
     inkscape:document-rotation="0"
     showgrid="false"
     fit-margin-top="0"
     fit-margin-left="0"
     fit-margin-right="0"
     fit-margin-bottom="0"
     inkscape:window-width="1600"
     inkscape:window-height="1202"
     inkscape:window-x="4792"
     inkscape:window-y="-8"
     inkscape:window-maximized="1" />
  <metadata
     id="metadata5">
    <rdf:RDF>
      <cc:Work
         rdf:about="">
        <dc:format>image/svg+xml</dc:format>
        <dc:type
           rdf:resource="http://purl.org/dc/dcmitype/StillImage" />
        <dc:title />
      </cc:Work>
    </rdf:RDF>
  </metadata>
  <g
     inkscape:label="Layer 1"
     inkscape:groupmode="layer"
     id="layer1"
     transform="translate(-65.318877,-87.003893)">
    <path
       id="path1930"
       style="display:inline;fill:none;stroke:#4d4d4d;stroke-width:0.79375;stroke-linecap:round;stroke-linejoin:round;stroke-miterlimit:4;stroke-dasharray:none;paint-order:markers fill stroke;enable-background:new;stop-color:#000000;stroke-opacity:1"
       d="m 71.634337,97.471137 a 1.2071505,1.2071505 0 0 1 0.01461,0.187248 v 0 a 1.2071505,1.2071505 0 0 1 -1.20715,1.207151 1.2071505,1.2071505 0 0 1 -1.207151,-1.207151 1.2071505,1.2071505 0 0 1 0.01461,-0.187235" />
    <path
       id="notifications_icon"
       style="display:inline;fill:none;stroke:#4d4d4d;stroke-width:0.79375;stroke-linecap:butt;stroke-linejoin:round;stroke-miterlimit:4;stroke-dasharray:none;stroke-opacity:1;enable-background:new"
       d="m 74.459041,97.401142 h -8.074053 c 0,0 -0.949886,-0.445255 -0.593683,-1.672198 0,0 1.191341,-1.52606 1.390057,-4.596807 0,0 0.272249,-2.477887 2.567817,-2.477887 L 69.712,87.927839 c 0,0 0.679626,-1.173367 1.312887,-0.02558 l 0.03037,0.672839 c 0,0 2.137248,0.158313 2.928824,3.007981 0,0 -0.118738,2.335142 1.22694,4.195343 0,0 0.514523,1.147783 -0.751998,1.622724 z"
       sodipodi:nodetypes="cccccccccccc" />
  </g>
</svg>
